<svg width="216" height="60" viewBox="0 0 216 60" fill="none" xmlns="http://www.w3.org/2000/svg">
<g clip-path="url(#clip0_49_79)">
<path d="M20.5 50C31.5457 50 40.5 41.0457 40.5 30C40.5 18.9543 31.5457 10 20.5 10C9.4543 10 0.5 18.9543 0.5 30C0.5 41.0457 9.4543 50 20.5 50Z" fill="#333333"/>
<path d="M17.7037 30.3952C17.7931 30.2856 17.8414 30.148 17.8402 30.0065C17.8389 29.8649 17.7883 29.7283 17.6969 29.6201L9.09375 18.6722H15.3029C15.4733 18.6683 15.6424 18.7019 15.7984 18.7707C15.9542 18.8395 16.0931 18.9419 16.2052 19.0704L24.4966 29.5805C24.5882 29.6884 24.6392 29.825 24.6406 29.9666C24.642 30.1082 24.5938 30.2459 24.5043 30.3555L16.4191 40.9557C16.3137 41.0919 16.1794 41.203 16.0259 41.2809C15.8723 41.3589 15.7034 41.4016 15.5313 41.4062H9.09375L17.7037 30.3952Z" fill="#C3D641"/>
<path d="M28.3871 29.993C28.3841 29.8513 28.3337 29.7148 28.2437 29.6053L19.6406 18.6719H25.8465C26.2175 18.6719 26.5613 18.8153 26.7492 19.0528L31.6029 25.2054C31.7909 25.4438 31.9206 25.7201 31.7376 25.9605L28.8453 29.6014C28.758 29.7117 28.7105 29.8484 28.7106 29.9891C28.7133 30.1307 28.7634 30.2673 28.853 30.3769L31.6891 33.9635C31.7791 34.074 31.8281 34.2122 31.8281 34.3547C31.8281 34.4971 31.7791 34.6353 31.6891 34.7458L26.9623 40.9409C26.8545 41.0795 26.7177 41.1928 26.5616 41.2732C26.4056 41.3535 26.234 41.3989 26.0586 41.4062H19.6406L28.2516 30.3749C28.3391 30.2647 28.3869 30.128 28.3871 29.9872" fill="#C3D641"/>
</g>
<path d="M48.5664 44V15.6016H54.3477V39.1758H68.7227V44H48.5664ZM72.8242 20.4453V15.3672H78.3125V20.4453H72.8242ZM72.8242 44V23.2578H78.3125V44H72.8242ZM102.824 44H97.3359V33.4141C97.3359 31.1745 97.2188 29.7292 96.9844 29.0781C96.75 28.4141 96.3659 27.8997 95.832 27.5352C95.3112 27.1706 94.6797 26.9883 93.9375 26.9883C92.987 26.9883 92.1341 27.2487 91.3789 27.7695C90.6237 28.2904 90.1029 28.9805 89.8164 29.8398C89.543 30.6992 89.4062 32.2878 89.4062 34.6055V44H83.918V23.2578H89.0156V26.3047C90.8255 23.9609 93.1042 22.7891 95.8516 22.7891C97.0625 22.7891 98.1693 23.0104 99.1719 23.4531C100.174 23.8828 100.93 24.4362 101.438 25.1133C101.958 25.7904 102.316 26.5586 102.512 27.418C102.72 28.2773 102.824 29.5078 102.824 31.1094V44ZM108.215 44V15.3672H113.703V30.5625L120.129 23.2578H126.887L119.797 30.8359L127.395 44H121.477L116.262 34.6836L113.703 37.3594V44H108.215ZM134.543 44L127.98 23.2578H133.312L137.199 36.8516L140.773 23.2578H146.066L149.523 36.8516L153.488 23.2578H158.898L152.238 44H146.965L143.391 30.6602L139.875 44H134.543ZM161.809 20.4453V15.3672H167.297V20.4453H161.809ZM161.809 44V23.2578H167.297V44H161.809ZM171.008 38.082L176.516 37.2422C176.75 38.3099 177.225 39.1237 177.941 39.6836C178.658 40.2305 179.66 40.5039 180.949 40.5039C182.368 40.5039 183.436 40.2435 184.152 39.7227C184.634 39.3581 184.875 38.8698 184.875 38.2578C184.875 37.8411 184.745 37.4961 184.484 37.2227C184.211 36.9622 183.599 36.7214 182.648 36.5C178.221 35.5234 175.415 34.6315 174.23 33.8242C172.59 32.7044 171.77 31.1484 171.77 29.1562C171.77 27.3594 172.479 25.849 173.898 24.625C175.318 23.401 177.518 22.7891 180.5 22.7891C183.339 22.7891 185.448 23.2513 186.828 24.1758C188.208 25.1003 189.159 26.4674 189.68 28.2773L184.504 29.2344C184.283 28.4271 183.859 27.8086 183.234 27.3789C182.622 26.9492 181.743 26.7344 180.598 26.7344C179.152 26.7344 178.117 26.9362 177.492 27.3398C177.076 27.6263 176.867 27.9974 176.867 28.4531C176.867 28.8438 177.049 29.1758 177.414 29.4492C177.909 29.8138 179.615 30.3281 182.531 30.9922C185.461 31.6562 187.505 32.4701 188.664 33.4336C189.81 34.4102 190.383 35.7708 190.383 37.5156C190.383 39.4167 189.589 41.0508 188 42.418C186.411 43.7852 184.061 44.4688 180.949 44.4688C178.124 44.4688 175.884 43.8958 174.23 42.75C172.59 41.6042 171.516 40.0482 171.008 38.082ZM207.219 37.3984L212.688 38.3164C211.984 40.3216 210.871 41.8516 209.348 42.9062C207.837 43.9479 205.943 44.4688 203.664 44.4688C200.057 44.4688 197.388 43.2904 195.656 40.9336C194.289 39.0456 193.605 36.6628 193.605 33.7852C193.605 30.3477 194.504 27.6589 196.301 25.7188C198.098 23.7656 200.37 22.7891 203.117 22.7891C206.203 22.7891 208.638 23.8112 210.422 25.8555C212.206 27.8867 213.059 31.0052 212.98 35.2109H199.23C199.27 36.8385 199.712 38.1081 200.559 39.0195C201.405 39.918 202.46 40.3672 203.723 40.3672C204.582 40.3672 205.305 40.1328 205.891 39.6641C206.477 39.1953 206.919 38.4401 207.219 37.3984ZM207.531 31.8516C207.492 30.263 207.082 29.0586 206.301 28.2383C205.52 27.4049 204.569 26.9883 203.449 26.9883C202.251 26.9883 201.262 27.4245 200.48 28.2969C199.699 29.1693 199.315 30.3542 199.328 31.8516H207.531Z" fill="#333333"/>
<defs>
<clipPath id="clip0_49_79">
<rect width="40" height="40" fill="white" transform="translate(0.5 10)"/>
</clipPath>
</defs>
</svg>
